<?xml version="1.0" encoding="utf-8"?>
<!-- Generator: Adobe Illustrator 26.2.0, SVG Export Plug-In . SVG Version: 6.00 Build 0)  -->
<svg version="1.1" id="a" xmlns="http://www.w3.org/2000/svg" xmlns:xlink="http://www.w3.org/1999/xlink" x="0px" y="0px"
	 viewBox="0 0 215.8 111.9" style="enable-background:new 0 0 215.8 111.9;" xml:space="preserve">
<style type="text/css">
	.st0{fill:#FFFFFF;stroke:#000000;stroke-width:5;stroke-miterlimit:10;}
</style>
<path class="st0" d="M54.9,52.2l14.8-15.7C34.3-3.6-2.9,31.4,0.8,64c-0.3,42,44.3,57.8,65.2,40.6l77.7-99.7h-34L49.2,86.5
	C35.7,90.9,21.6,78.9,22,62.9C26,30.7,51,36.8,54.9,52.2z"/>
<path class="st0" d="M160.9,59.8l-14.8,15.7c35.4,40.1,72.6,5,69-27.6c0.3-42-44.3-57.8-65.2-40.6L72.1,107h34l60.5-81.5
	c13.5-4.4,27.6,7.6,27.2,23.6C189.8,81.2,164.8,75.1,160.9,59.8L160.9,59.8z"/>
</svg>
